<svg xmlns="http://www.w3.org/2000/svg" width="155.582" height="59.072" viewBox="0 0 155.582 59.072"><defs><style>.a{fill:#080a0b;}.b{fill:#010101;}.c{fill:#238ece;}.d{fill:#eb252b;}</style></defs><g transform="translate(27.058 34.879)"><path class="a" d="M23.08,18.584V14.132h-.458s-.2,1.883-2.366.382-9.616.458-9.616,6.411c0,4.579,4.02,6.691,7.25,6.843,2.976.1,5.571-2.824,5.571-2.824l-.611-.611A5.4,5.4,0,0,1,18.119,26.8c-3.053,0-3.765-3.027-3.867-6.284,0-1.933.1-5.292,3.485-5.851a5.729,5.729,0,0,1,4.91,3.943Z" transform="translate(-10.64 -14.03)"/></g><g transform="translate(61.708 35.26)"><path class="a" d="M24.667,14.18H31.51v.585H30.238s-.865.153-.865.916v9.744s.28,1.145,2.112,1.145v.611H24.26v-.56s2.112-.051,2.112-1.094v-9.82s-.1-.89-.865-.89H24.26v-.611h.407Z" transform="translate(-24.26 -14.18)"/></g><g transform="translate(90.735 35.26)"><path class="b" d="M35.7,18.2h.814s.407-3.333,2.34-3.333h1.5V25.45a2.457,2.457,0,0,1-2.112,1.3v.432h7.683v-.432s-2.162-.254-2.162-1.3V14.867h.992a3.483,3.483,0,0,1,2.468,3.256h.789V14.18H35.67V18.2Z" transform="translate(-35.67 -14.18)"/></g><g transform="translate(123.191 35.056)"><path class="a" d="M53.623,14.914H55.3V14.1H48.484s-.127.814,0,.814h.992l4.452,7.047v3.892A2.378,2.378,0,0,1,51.842,26.9v.432h7.276V26.9s-2.061-.254-2.061-1.043V21.936l4.554-7h.967V14.1H57.821v.814h.763s.661.356-.025,1.3c-.661.941-2.239,3.434-2.239,3.434h-.432L54.03,16.517A1.83,1.83,0,0,1,53.623,14.914Z" transform="translate(-48.428 -14.1)"/></g><g transform="translate(90.735 15.798)"><path class="c" d="M50.6,15.561c1.552-.509,2.544-2.442,2.544-4.325,0-4.223-6.284-4.706-6.284-4.706H35.67V26.2H46.864c4.859,0,7.1-3.74,7.1-5.8C54.216,16.884,50.6,15.561,50.6,15.561ZM42.081,10.88h3.155a1.688,1.688,0,0,1,1.959,1.806,1.654,1.654,0,0,1-1.908,1.806H42.081Zm3.562,10.71H42.055V17.673h3.511a1.871,1.871,0,0,1,2.188,1.959A1.813,1.813,0,0,1,45.643,21.591Z" transform="translate(-35.67 -6.53)"/></g><g transform="translate(69.365 15.798)"><path class="c" d="M27.27,6.53h6.843V13.2h6.411V6.53h6.818V26.17H40.524V18.487H34.113V26.17H27.27Z" transform="translate(-27.27 -6.53)"/></g><g transform="translate(49.318 15.798)"><path class="c" d="M19.39,6.53h5.978l6.793,10.252V6.53h6.233V26.17H32.543l-6.92-10.329V26.17H19.39Z" transform="translate(-19.39 -6.53)"/></g><g transform="translate(17.671 15.798)"><path class="c" d="M6.95,6.53h7.657v6l6.258-5.978h8.293l-8.065,7.479,8.5,11.3V6.555h7.25V26.2H22.112L16.134,18.08,14.607,19.5V26.2H6.95Z" transform="translate(-6.95 -6.53)"/></g><g transform="translate(0 17.376)"><path class="d" d="M18.9,14.782s-6.971,6.462-4.706,8.726c2.061,2.112,20.556-.687,28.06-3.791C43.522,19.31,73.058,7.15,73.058,7.15S55.224,18.776,27.164,27.858C18.54,30.733,2.08,35.287.172,31.471-.9,28.774,2.869,25.848,18.9,14.782Z" transform="translate(-0.004 -7.15)"/></g><g transform="translate(108.289 15.798)"><path class="c" d="M57.045,6.53h-7.2L42.57,26.2h6.665l.916-2.976h6.564L58.063,26.2h6.716ZM51.092,19.352l2.34-6.843,2.391,6.843Z" transform="translate(-42.57 -6.53)"/></g><g transform="translate(128.208 15.34)"><path class="c" d="M65.079,14.058H71.49s0-7.25-9.922-7.708c-3.1,0-10.71,1.552-11.168,10.481,0,3.816,2.493,10.049,11.092,10.049,4.935,0,9.973-3.1,10.354-8.09H65.028s.458,3.384-3.587,3.384-4.2-3.409-4.2-6.055.738-5.164,4.147-5.164C64.85,10.955,65.079,13.321,65.079,14.058Z" transform="translate(-50.4 -6.35)"/></g><g transform="translate(148.306 7.301)"><path class="c" d="M61.938,10.466a3.638,3.638,0,1,1,3.638-3.638A3.637,3.637,0,0,1,61.938,10.466Zm0-6.843a3.205,3.205,0,1,0,3.205,3.205A3.208,3.208,0,0,0,61.938,3.622Z" transform="translate(-58.3 -3.19)"/></g><g transform="translate(150.214 9.031)"><path class="c" d="M59.05,7.864V3.87h1.755a2.259,2.259,0,0,1,.814.1.9.9,0,0,1,.432.382,1.209,1.209,0,0,1,.153.611,1.044,1.044,0,0,1-.28.712,1.288,1.288,0,0,1-.84.356,1.051,1.051,0,0,1,.305.2,2.33,2.33,0,0,1,.432.534l.687,1.094h-.661l-.534-.84c-.153-.229-.28-.432-.382-.56a.846.846,0,0,0-.28-.254.9.9,0,0,0-.229-.1.878.878,0,0,0-.305-.025h-.611V7.839H59.05Zm.534-2.239H60.7a1.644,1.644,0,0,0,.56-.076.7.7,0,0,0,.305-.229.584.584,0,0,0,.1-.356.637.637,0,0,0-.2-.458.906.906,0,0,0-.636-.178H59.584v1.3Z" transform="translate(-59.05 -3.87)"/></g><g transform="translate(37.641 0)"><path class="c" d="M22.05,14.821A7.25,7.25,0,1,1,29.3,7.57,7.264,7.264,0,0,1,22.05,14.821Zm0-14.094A6.843,6.843,0,1,0,28.894,7.57,6.862,6.862,0,0,0,22.05.727Z" transform="translate(-14.8 -0.32)"/></g><g transform="translate(37.845 1.603)"><path class="c" d="M28.363,9.472A7.049,7.049,0,1,1,17.7.95Z" transform="translate(-14.88 -0.95)"/></g><g transform="translate(14.262 54.213)"><g transform="translate(0 0.102)"><path class="d" d="M5.61,26.3V21.67h.941v3.841h2.34V26.3Z" transform="translate(-5.61 -21.67)"/></g><g transform="translate(4.35 0.076)"><path class="d" d="M7.32,26.316V21.66h3.46v.789H8.261v1.043H10.6v.789H8.261v1.272h2.595v.789H7.32Z" transform="translate(-7.32 -21.66)"/></g><g transform="translate(8.599 0.076)"><path class="d" d="M13.671,26.316H12.653l-.407-1.068H10.389l-.382,1.068H8.99L10.8,21.66h.992Zm-1.73-1.832-.636-1.73-.636,1.73Z" transform="translate(-8.99 -21.66)"/></g><g transform="translate(14.17 0.076)"><path class="d" d="M11.18,21.66h1.73a3.967,3.967,0,0,1,.89.076,1.588,1.588,0,0,1,.712.432,1.916,1.916,0,0,1,.458.763,3.438,3.438,0,0,1,.153,1.094,2.9,2.9,0,0,1-.153.992,2.024,2.024,0,0,1-.509.814,1.814,1.814,0,0,1-.661.382,2.51,2.51,0,0,1-.84.1H11.18V21.66Zm.941.789v3.078h.712a2.589,2.589,0,0,0,.56-.051.7.7,0,0,0,.382-.2,1.083,1.083,0,0,0,.254-.458,3.481,3.481,0,0,0,.1-.865,2.51,2.51,0,0,0-.1-.84.97.97,0,0,0-.712-.687,4.337,4.337,0,0,0-.763-.051h-.432Z" transform="translate(-11.18 -21.66)"/></g><g transform="translate(19.258 0.076)"><path class="d" d="M13.18,26.316V21.66h.941v4.656Z" transform="translate(-13.18 -21.66)"/></g><g transform="translate(21.497 0.076)"><path class="d" d="M14.06,26.316V21.66h.916l1.908,3.1v-3.1h.865v4.656h-.941l-1.883-3.053v3.053Z" transform="translate(-14.06 -21.66)"/></g><g transform="translate(26.407)"><path class="d" d="M18.33,24.657v-.789h2.035v1.857a2.505,2.505,0,0,1-.865.509,3.063,3.063,0,0,1-1.145.229,2.544,2.544,0,0,1-1.272-.305,1.976,1.976,0,0,1-.814-.89,2.891,2.891,0,0,1-.28-1.247,2.714,2.714,0,0,1,.305-1.3,2.087,2.087,0,0,1,.89-.865,2.435,2.435,0,0,1,1.119-.229,2.241,2.241,0,0,1,1.348.356A1.717,1.717,0,0,1,20.289,23l-.941.178a.914.914,0,0,0-.382-.534,1.216,1.216,0,0,0-.687-.2,1.342,1.342,0,0,0-.992.382A1.576,1.576,0,0,0,16.931,24a1.783,1.783,0,0,0,.382,1.247,1.215,1.215,0,0,0,.967.407,1.509,1.509,0,0,0,.585-.127,2.406,2.406,0,0,0,.509-.28v-.585H18.33Z" transform="translate(-15.99 -21.63)"/></g><g transform="translate(33.784 0.076)"><path class="d" d="M20.009,26.316,18.89,21.66h.967l.712,3.205.865-3.205h1.119l.814,3.256.712-3.256h.941l-1.145,4.656h-.992l-.941-3.485-.916,3.485Z" transform="translate(-18.89 -21.66)"/></g><g transform="translate(40.755 0.076)"><path class="d" d="M21.63,26.316V21.66h.941v4.656Z" transform="translate(-21.63 -21.66)"/></g><g transform="translate(42.638 0.076)"><path class="d" d="M23.744,26.316V22.449H22.37V21.66h3.714v.789H24.71v3.867Z" transform="translate(-22.37 -21.66)"/></g><g transform="translate(47.344 0.076)"><path class="d" d="M24.22,26.316V21.66h.941v1.832h1.857V21.66h.941v4.656h-.941V24.28H25.161v2.035Z" transform="translate(-24.22 -21.66)"/></g><g transform="translate(54.391 0.025)"><path class="d" d="M26.99,24.845l.916-.076a1.247,1.247,0,0,0,.331.687,1.018,1.018,0,0,0,.687.229,1.053,1.053,0,0,0,.687-.2.578.578,0,0,0,.229-.458.383.383,0,0,0-.1-.28.819.819,0,0,0-.331-.2,6.455,6.455,0,0,0-.763-.2,2.654,2.654,0,0,1-1.068-.458,1.221,1.221,0,0,1-.432-.941,1.261,1.261,0,0,1,.2-.661,1.4,1.4,0,0,1,.585-.483,2.465,2.465,0,0,1,.916-.153,2,2,0,0,1,1.323.382,1.281,1.281,0,0,1,.458,1.018l-.941.051a.876.876,0,0,0-.254-.509,1.212,1.212,0,0,0-1.221.025.333.333,0,0,0,0,.56,2.406,2.406,0,0,0,.865.305,5.282,5.282,0,0,1,1.018.331,1.168,1.168,0,0,1,.509.483,1.38,1.38,0,0,1,.178.738,1.407,1.407,0,0,1-.229.763,1.27,1.27,0,0,1-.636.509,2.917,2.917,0,0,1-1.018.178,1.944,1.944,0,0,1-1.348-.407A2.031,2.031,0,0,1,26.99,24.845Z" transform="translate(-26.99 -21.64)"/></g><g transform="translate(58.919 0.076)"><path class="d" d="M33.426,26.316H32.408L32,25.247H30.144l-.382,1.068H28.77l1.806-4.656h.992ZM31.7,24.484l-.636-1.73-.636,1.73Z" transform="translate(-28.77 -21.66)"/></g><g transform="translate(64.44 0.076)"><path class="d" d="M30.94,26.316V21.66h.941v4.656Z" transform="translate(-30.94 -21.66)"/></g><g transform="translate(66.5)"><path class="d" d="M34.09,24.657v-.789h2.035v1.857a2.505,2.505,0,0,1-.865.509,3.063,3.063,0,0,1-1.145.229,2.544,2.544,0,0,1-1.272-.305,1.975,1.975,0,0,1-.814-.89,2.891,2.891,0,0,1-.28-1.247,2.714,2.714,0,0,1,.305-1.3,2.087,2.087,0,0,1,.89-.865,2.435,2.435,0,0,1,1.119-.229,2.241,2.241,0,0,1,1.348.356A1.717,1.717,0,0,1,36.049,23l-.941.178a.914.914,0,0,0-.382-.534,1.158,1.158,0,0,0-.687-.2,1.342,1.342,0,0,0-.992.382A1.576,1.576,0,0,0,32.691,24a1.783,1.783,0,0,0,.382,1.247,1.215,1.215,0,0,0,.967.407,1.509,1.509,0,0,0,.585-.127,2.406,2.406,0,0,0,.509-.28v-.585H34.09Z" transform="translate(-31.75 -21.63)"/></g><g transform="translate(71.945 0)"><path class="d" d="M33.89,24.072a3.255,3.255,0,0,1,.2-1.2,2.167,2.167,0,0,1,.432-.636,2.053,2.053,0,0,1,.611-.432,2.509,2.509,0,0,1,1.018-.178,2.166,2.166,0,0,1,1.654.636,2.48,2.48,0,0,1,.611,1.781,2.376,2.376,0,0,1-.611,1.755,2.468,2.468,0,0,1-3.307,0A2.353,2.353,0,0,1,33.89,24.072Zm.967-.051a1.812,1.812,0,0,0,.356,1.2,1.2,1.2,0,0,0,.941.407,1.113,1.113,0,0,0,.916-.407A1.888,1.888,0,0,0,37.426,24a1.765,1.765,0,0,0-.356-1.2,1.207,1.207,0,0,0-.941-.407,1.163,1.163,0,0,0-.941.407A2.11,2.11,0,0,0,34.857,24.021Z" transform="translate(-33.89 -21.63)"/></g><g transform="translate(77.592 0.076)"><path class="d" d="M36.11,26.316V21.66h.916l1.908,3.1v-3.1H39.8v4.656h-.916L37,23.263v3.053Z" transform="translate(-36.11 -21.66)"/></g><g transform="translate(84.868 0.076)"><path class="d" d="M38.97,26.316V21.66h.941v4.656Z" transform="translate(-38.97 -21.66)"/></g><g transform="translate(87.107 0.076)"><path class="d" d="M39.85,26.316V21.66h.916l1.908,3.1v-3.1h.865v4.656H42.6l-1.883-3.053v3.053Z" transform="translate(-39.85 -21.66)"/></g><g transform="translate(91.686 0.076)"><path class="d" d="M43.329,26.316,41.65,21.66h1.018l1.17,3.46,1.145-3.46h.992L44.3,26.316Z" transform="translate(-41.65 -21.66)"/></g><g transform="translate(96.927 0.076)"><path class="d" d="M43.71,26.316V21.66h3.46v.789H44.651v1.043h2.34v.789h-2.34v1.272h2.595v.789H43.71Z" transform="translate(-43.71 -21.66)"/></g><g transform="translate(101.43 0.025)"><path class="d" d="M45.48,24.845l.916-.076a1.247,1.247,0,0,0,.331.687,1.018,1.018,0,0,0,.687.229,1.053,1.053,0,0,0,.687-.2.578.578,0,0,0,.229-.458.383.383,0,0,0-.1-.28.819.819,0,0,0-.331-.2,6.453,6.453,0,0,0-.763-.2,2.654,2.654,0,0,1-1.068-.458,1.221,1.221,0,0,1-.432-.941,1.261,1.261,0,0,1,.2-.661,1.4,1.4,0,0,1,.585-.483,2.465,2.465,0,0,1,.916-.153,2,2,0,0,1,1.323.382,1.281,1.281,0,0,1,.458,1.018l-.941.051a.876.876,0,0,0-.254-.509,1.212,1.212,0,0,0-1.221.025.333.333,0,0,0,0,.56,2.406,2.406,0,0,0,.865.305,5.282,5.282,0,0,1,1.018.331,1.332,1.332,0,0,1,.509.483,1.38,1.38,0,0,1,.178.738,1.407,1.407,0,0,1-.229.763,1.15,1.15,0,0,1-.636.509,2.917,2.917,0,0,1-1.018.178,1.944,1.944,0,0,1-1.348-.407A1.834,1.834,0,0,1,45.48,24.845Z" transform="translate(-45.48 -21.64)"/></g><g transform="translate(106.06 0.076)"><path class="d" d="M48.674,26.316V22.449H47.3V21.66h3.714v.789H49.64v3.867Z" transform="translate(-47.3 -21.66)"/></g><g transform="translate(112.801)"><path class="d" d="M52.29,24.657v-.789h2.035v1.857a2.506,2.506,0,0,1-.865.509,3.063,3.063,0,0,1-1.145.229,2.544,2.544,0,0,1-1.272-.305,1.976,1.976,0,0,1-.814-.89,2.891,2.891,0,0,1-.28-1.247,2.714,2.714,0,0,1,.305-1.3,2.087,2.087,0,0,1,.89-.865,2.435,2.435,0,0,1,1.119-.229,2.241,2.241,0,0,1,1.348.356A1.717,1.717,0,0,1,54.249,23l-.941.178a.914.914,0,0,0-.382-.534,1.216,1.216,0,0,0-.687-.2,1.342,1.342,0,0,0-.992.382A1.576,1.576,0,0,0,50.891,24a1.783,1.783,0,0,0,.382,1.247,1.215,1.215,0,0,0,.967.407,1.509,1.509,0,0,0,.585-.127,2.406,2.406,0,0,0,.509-.28v-.585H52.29Z" transform="translate(-49.95 -21.63)"/></g><g transform="translate(118.424 0.076)"><path class="d" d="M52.16,26.316V21.66h1.984a3.635,3.635,0,0,1,1.094.127.94.94,0,0,1,.534.458,1.391,1.391,0,0,1,.2.738,1.239,1.239,0,0,1-.305.865,1.417,1.417,0,0,1-.916.432,2.938,2.938,0,0,1,.509.382,8.4,8.4,0,0,1,.534.763l.56.916H55.238l-.687-1.018a7.9,7.9,0,0,0-.509-.687.721.721,0,0,0-.28-.2,1.972,1.972,0,0,0-.483-.051h-.2v1.959H52.16Zm.941-2.7h.687a4.533,4.533,0,0,0,.84-.051.4.4,0,0,0,.254-.2.538.538,0,0,0,.1-.356.625.625,0,0,0-.127-.382.533.533,0,0,0-.356-.178c-.076,0-.305-.025-.687-.025h-.738v1.2Z" transform="translate(-52.16 -21.66)"/></g><g transform="translate(123.334 0)"><path class="d" d="M54.09,24.072a3.255,3.255,0,0,1,.2-1.2,2.167,2.167,0,0,1,.432-.636,2.052,2.052,0,0,1,.611-.432,2.509,2.509,0,0,1,1.018-.178,2.166,2.166,0,0,1,1.654.636,2.48,2.48,0,0,1,.611,1.781,2.376,2.376,0,0,1-.611,1.755,2.468,2.468,0,0,1-3.307,0A2.353,2.353,0,0,1,54.09,24.072Zm.967-.051a1.812,1.812,0,0,0,.356,1.2,1.163,1.163,0,0,0,.941.407,1.113,1.113,0,0,0,.916-.407A1.888,1.888,0,0,0,57.626,24a1.765,1.765,0,0,0-.356-1.2,1.207,1.207,0,0,0-.941-.407,1.163,1.163,0,0,0-.941.407A2.11,2.11,0,0,0,55.057,24.021Z" transform="translate(-54.09 -21.63)"/></g><g transform="translate(128.981 0.076)"><path class="d" d="M56.31,21.66h.941v2.519a5.609,5.609,0,0,0,.025.789.711.711,0,0,0,.28.458.919.919,0,0,0,.611.178,1.03,1.03,0,0,0,.611-.153.7.7,0,0,0,.254-.407,5.218,5.218,0,0,0,.051-.789V21.685h.941v2.442a6.4,6.4,0,0,1-.076,1.2,1.4,1.4,0,0,1-.28.585,1.552,1.552,0,0,1-.56.382,2.239,2.239,0,0,1-.89.153A2.587,2.587,0,0,1,57.2,26.29a1.25,1.25,0,0,1-.534-.407,1.072,1.072,0,0,1-.254-.509,6.5,6.5,0,0,1-.1-1.2Z" transform="translate(-56.31 -21.66)"/></g><g transform="translate(134.069 0.076)"><path class="d" d="M58.31,26.316V21.66h1.5a4.978,4.978,0,0,1,1.119.076,1.21,1.21,0,0,1,.661.458,1.455,1.455,0,0,1,.28.916,1.478,1.478,0,0,1-.153.712,1.026,1.026,0,0,1-.407.458,2.714,2.714,0,0,1-.483.229,4.767,4.767,0,0,1-.967.076h-.611v1.755H58.31Zm.941-3.867v1.323h.509A2.254,2.254,0,0,0,60.5,23.7a.694.694,0,0,0,.305-.229.584.584,0,0,0,.1-.356.642.642,0,0,0-.153-.432.57.57,0,0,0-.382-.2,4.182,4.182,0,0,0-.687-.025Z" transform="translate(-58.31 -21.66)"/></g></g></svg>