<svg xmlns="http://www.w3.org/2000/svg" width="108.1" height="80.738" viewBox="0 0 108.1 80.738"><defs><style>.a{fill:#8dc748;}.b{fill:#557f3a;}.c{fill:#22376c;}.d{fill:#a17630;}.e{fill:none;stroke:#0c183b;stroke-miterlimit:10;stroke-width:0.414px;}</style></defs><path class="a" d="M47.231,8.194,31.37,21.955,15.33,8.373l2.53-2.117L31.28,17.165,44.844,6.22Z" transform="translate(12.175 4.94)"/><path class="a" d="M22.56,5.21l2.978-2.53,3.1,2.53Z" transform="translate(17.917 2.128)"/><path class="a" d="M29.932,0,17.05,10.747l2.925,2.458,2.96-2.745H36.7l3.212,2.889,3.086-2.584ZM26.021,7.679l3.893-3.3,4.055,3.3Z" transform="translate(13.541)"/><path class="b" d="M25.562,2.66,22.53,5.226h6.208Z" transform="translate(17.893 2.113)"/><path class="b" d="M38.2,8.638,35.167,6.09l-13.51.018L18.84,8.62l1,.843L21.37,8.117H35.49l1.687,1.328Z" transform="translate(14.962 4.837)"/><path class="a" d="M15.15,7.59V23.971l3.1,2.494V17.027l8.809,16a6.757,6.757,0,0,0,1.651,1.992l2.44,2.027v-15.9l-3.1-2.637v8.845L19.33,11.627a5.914,5.914,0,0,0-1.238-1.507Z" transform="translate(12.032 6.028)"/><path class="b" d="M17.3,14.05v7.787l3.194-2.045Z" transform="translate(13.739 11.158)"/><path class="b" d="M17.71,9.75,25.622,24.1V18.2l-1.866-3.355Z" transform="translate(14.065 7.743)"/><path class="a" d="M24.34,21.2V37.025L40.362,23.766V7.6Zm12.7,1.112-9.4,7.787v-8l9.4-7.338Z" transform="translate(19.33 6.036)"/><path class="b" d="M32.576,14.017l2.566-2.027v6.316l-8.7,7.123V22.45l6.136-5.078Z" transform="translate(20.998 9.522)"/><path class="c" d="M.04,10.6V28.075H2.606V12.932H3.18L16.816,28.075h4.808V10.6H19.04V26.425h-.161L4.6,10.6Z" transform="translate(0.032 8.418)"/><path class="d" d="M31.99,28.06V45.535h2.494V30.374h.556L48.3,45.535h4.683V28.06H50.47V43.885h-.161L36.4,28.06Z" transform="translate(25.406 22.285)"/><path class="c" d="M36.38,10.6h3l7.912,15.556h.2L55.237,10.6h2.907L49.208,28.075H45.189Z" transform="translate(28.892 8.418)"/><path class="c" d="M60.826,10.6H56.9L47.8,28.057h2.889L52.5,24.469H65.365l1.884,3.588h2.889Zm-7.374,12,5.257-10.352h.251L64.378,22.6Z" transform="translate(37.962 8.418)"/><path class="d" d="M27.246,28.06H23.317l-9.1,17.457h2.889l1.812-3.588H31.785l1.884,3.588h2.889Zm-7.374,12,5.257-10.352h.251L30.8,40.063Z" transform="translate(11.293 22.285)"/><line class="e" x2="108.028" transform="translate(0.072 43.419)"/><path class="d" d="M2.588,28.06H.04V45.535H15.811V43.472H2.588Z" transform="translate(0.032 22.285)"/><path class="d" d="M62.876,28.06H48.81V45.517H62.876c3.57,0,6.118-1.651,6.459-6.459V34.537c0-3.588-1.812-5.975-6.459-6.477M66.59,39.6a4.629,4.629,0,0,1-4.629,4.629H51.5V29.711H62.7A3.875,3.875,0,0,1,66.572,33.6V39.6Z" transform="translate(38.764 22.285)"/><path class="d" d="M3.624,45.019h.664v.466c0,.736-.359,1.077-1.184,1.077H1.184C.359,46.562,0,46.221,0,45.486V42.777C0,42.041.359,41.7,1.184,41.7H3.1c.825,0,1.184.341,1.184,1.077v.466H3.624v-.466c0-.377-.126-.52-.52-.52H1.184c-.395,0-.52.144-.52.52v2.709c0,.377.126.52.52.52H3.1c.395,0,.52-.126.52-.52Z" transform="translate(0 33.117)"/><path class="d" d="M6.526,41.7H7.19v4.862H6.526V44.409H3.584v2.153H2.92V41.7h.664v2.153H6.526Z" transform="translate(2.319 33.117)"/><path class="d" d="M8.946,41.7c.825,0,1.184.341,1.184,1.077v2.709c0,.736-.359,1.077-1.184,1.077h-1.9c-.825,0-1.184-.341-1.184-1.077V42.777c0-.736.359-1.077,1.184-1.077Zm.52,1.077c0-.377-.126-.52-.52-.52h-1.9c-.395,0-.52.144-.52.52v2.709c0,.377.126.52.52.52h1.92c.395,0,.52-.126.52-.52V42.777Z" transform="translate(4.654 33.117)"/><path class="d" d="M13.714,45.019h.664v.466c0,.736-.359,1.077-1.184,1.077h-1.92c-.825,0-1.184-.341-1.184-1.077V42.777c0-.736.359-1.077,1.184-1.077h1.92c.825,0,1.184.341,1.184,1.077v.466h-.664v-.466c0-.377-.126-.52-.52-.52h-1.92c-.395,0-.52.144-.52.52v2.709c0,.377.126.52.52.52h1.92c.395,0,.52-.126.52-.52Z" transform="translate(8.013 33.117)"/><path class="d" d="M16.624,41.7h.664v3.786c0,.736-.377,1.077-1.184,1.077h-1.92c-.807,0-1.184-.341-1.184-1.077V41.7h.664v3.786c0,.377.126.52.52.52H16.1c.395,0,.52-.144.52-.52Z" transform="translate(10.324 33.117)"/><path class="d" d="M19.044,42.319c.825,0,1.184.341,1.184,1.077v2.709c0,.736-.359,1.076-1.184,1.076h-1.92c-.825,0-1.184-.341-1.184-1.076V43.4c0-.736.359-1.077,1.184-1.077Zm.52,1.077c0-.377-.126-.52-.52-.52h-1.92c-.395,0-.52.144-.52.52v2.709c0,.377.126.52.52.52h1.92c.395,0,.52-.126.52-.52Zm-1.507-2.1-.538.646h-.556l.843-1.023H18.4l.825,1.023h-.556l-.538-.646Zm.251,6.369a.306.306,0,0,1,0,.466.368.368,0,0,1-.52,0,.307.307,0,0,1,0-.466.406.406,0,0,1,.52,0" transform="translate(12.659 32.498)"/><path class="d" d="M22.4,45.019h.664v.466c0,.736-.359,1.077-1.184,1.077h-1.92c-.825,0-1.184-.341-1.184-1.077V42.777c0-.736.359-1.077,1.184-1.077h1.92c.825,0,1.184.341,1.184,1.077v.466H22.4v-.466c0-.377-.126-.52-.52-.52h-1.92c-.395,0-.52.144-.52.52v2.709c0,.377.126.52.52.52h1.92c.395,0,.52-.126.52-.52Z" transform="translate(14.915 33.117)"/><path class="d" d="M27.026,43.261h-.664v-.484c0-.377-.126-.52-.52-.52h-1.92c-.395,0-.52.144-.52.52a1.173,1.173,0,0,0,.09.52.958.958,0,0,0,.413.251l1.92.592a2.2,2.2,0,0,1,.933.466,1.254,1.254,0,0,1,.251.879c0,.736-.377,1.077-1.184,1.077H23.9c-.807,0-1.184-.341-1.184-1.077v-.466h.664v.466c0,.377.126.52.52.52h1.92c.395,0,.52-.144.52-.52a1.032,1.032,0,0,0-.09-.5.814.814,0,0,0-.413-.251l-1.92-.592a2.428,2.428,0,0,1-.951-.466,1.283,1.283,0,0,1-.233-.9c0-.736.377-1.077,1.184-1.077h1.92c.807,0,1.184.341,1.184,1.077Z" transform="translate(18.044 33.117)"/><path class="d" d="M28.644,42.669c.825,0,1.184.341,1.184,1.077v2.709c0,.736-.359,1.077-1.184,1.077h-1.92c-.825,0-1.184-.341-1.184-1.077V43.745c0-.736.359-1.077,1.184-1.077Zm.52,1.077c0-.377-.126-.52-.52-.52h-1.92c-.395,0-.52.144-.52.52v2.709c0,.377.126.52.52.52h1.92c.395,0,.52-.126.52-.52V43.745Zm-1.525-2.1-.538.646h-.556l.843-1.023h.592l.825,1.023h-.556l-.538-.646ZM28.5,41.5l.736-1.023h.7L28.985,41.5Z" transform="translate(20.283 32.149)"/><path class="d" d="M32.176,41.7h.664v4.862H31.692l-2.386-4.288h-.072v4.288H28.57V41.7H29.7l2.4,4.306h.072Z" transform="translate(22.69 33.117)"/><path class="d" d="M35.868,43.261H35.2v-.484c0-.377-.126-.52-.52-.52h-1.92c-.395,0-.52.144-.52.52v2.709c0,.377.126.52.52.52h1.92c.395,0,.52-.144.52-.52V44.409H33.733v-.556h2.135v1.633c0,.736-.359,1.077-1.184,1.077h-1.92c-.825,0-1.184-.341-1.184-1.077V42.777c0-.736.359-1.077,1.184-1.077h1.92c.825,0,1.184.341,1.184,1.077Z" transform="translate(25.08 33.117)"/><path class="d" d="M40.368,43.351c0,.556-.323.718-.466.736h-.054v.072s.52.036.52.736v.574c0,.736-.377,1.076-1.184,1.076h-3.1V41.7h3.1c.807,0,1.184.341,1.184,1.077v.574Zm-.664-.574c0-.377-.126-.52-.52-.52h-2.44v1.579h2.44c.413,0,.52-.108.52-.5Zm0,2.135c0-.377-.108-.5-.52-.5h-2.44v1.579h2.44c.395,0,.52-.126.52-.52Z" transform="translate(28.654 33.117)"/><path class="d" d="M42.564,42.319h.664c.2,0,.269-.09.269-.215v-.359h.592v.108a1.085,1.085,0,0,1-.215.843,1.02,1.02,0,0,1-.646.161v3.247c0,.736-.377,1.077-1.184,1.077h-1.92c-.807,0-1.184-.341-1.184-1.077V42.319H39.6v3.786c0,.377.126.52.52.52h1.92c.395,0,.52-.126.52-.52Zm-1-.377h-.484l-.969-1.023h.7Z" transform="translate(30.925 32.498)"/><path class="d" d="M45.764,41.7h.664v4.862H45.28l-2.4-4.288H42.8v4.288H42.14V41.7h1.148l2.4,4.306h.072Z" transform="translate(33.467 33.117)"/><path class="d" d="M49.368,43.261H48.7v-.484c0-.377-.126-.52-.52-.52h-1.92c-.395,0-.52.144-.52.52v2.709c0,.377.126.52.52.52h1.92c.395,0,.52-.144.52-.52V44.409H47.233v-.556h2.135v1.633c0,.736-.359,1.077-1.184,1.077h-1.92c-.825,0-1.184-.341-1.184-1.077V42.777c0-.736.359-1.077,1.184-1.077h1.92c.825,0,1.184.341,1.184,1.077v.484Z" transform="translate(35.802 33.117)"/><path class="d" d="M53.336,43.261h-.664v-.484c0-.377-.126-.52-.52-.52h-1.92c-.395,0-.52.144-.52.52a1.173,1.173,0,0,0,.09.52.856.856,0,0,0,.413.251l1.92.592a2.2,2.2,0,0,1,.933.466,1.254,1.254,0,0,1,.251.879c0,.736-.377,1.077-1.184,1.077h-1.92c-.807,0-1.184-.341-1.184-1.077v-.466h.664v.466c0,.377.126.52.52.52h1.92c.395,0,.52-.144.52-.52a1.032,1.032,0,0,0-.09-.5.814.814,0,0,0-.413-.251l-1.92-.592a2.428,2.428,0,0,1-.951-.466,1.283,1.283,0,0,1-.233-.9c0-.736.377-1.077,1.184-1.077h1.92c.807,0,1.184.341,1.184,1.077Z" transform="translate(38.939 33.117)"/><path class="d" d="M53.448,42.319h1.041l1.83,4.862h-.7l-.5-1.346H52.8l-.5,1.346h-.7ZM54.9,45.28,54,42.894h-.072l-.915,2.386Zm-1.435-3.337L54.2,40.92h.7l-.951,1.023Z" transform="translate(40.98 32.498)"/><path class="d" d="M58.384,41.7h.664v4.862H57.9l-2.4-4.288h-.072v4.288H54.76V41.7h1.148l2.4,4.306h.072Z" transform="translate(43.489 33.117)"/><path class="d" d="M62.068,43.261H61.4v-.484c0-.377-.126-.52-.52-.52h-1.92c-.395,0-.52.144-.52.52v2.709c0,.377.126.52.52.52h1.92c.395,0,.52-.144.52-.52V44.409H59.933v-.556h2.135v1.633c0,.736-.359,1.077-1.184,1.077h-1.92c-.825,0-1.184-.341-1.184-1.077V42.777c0-.736.359-1.077,1.184-1.077h1.92c.825,0,1.184.341,1.184,1.077Z" transform="translate(45.888 33.117)"/></svg>